<?xml version="1.0" encoding="utf-8"?>
<!-- Generator: Adobe Illustrator 18.1.1, SVG Export Plug-In . SVG Version: 6.00 Build 0)  -->
<svg version="1.1" xmlns="http://www.w3.org/2000/svg" xmlns:xlink="http://www.w3.org/1999/xlink" x="0px" y="0px"
	 viewBox="0 0 500 500" enable-background="new 0 0 500 500" xml:space="preserve">
<g id="Layer_1">
		<circle class="st0" fill="#FF00DB" cx="16.8" cy="5.3" r="2.5"/>
		<circle class="st0" fill="#FF00DB" cx="10.1" cy="11.7" r="1.5"/>
		<circle class="st0" fill="#FF00DB" cx="6.3" cy="20.9" r="2.3"/>
		<circle class="st0" fill="#FF00DB" cx="6.3" cy="31.7" r="2.3"/>
		<circle class="st0" fill="#FF00DB" cx="11.2" cy="40.9" r="2"/>
		<circle class="st0" fill="#FF00DB" cx="19" cy="46.6" r="1.3"/>
		<circle class="st0" fill="#FF00DB" cx="28.5" cy="49.5" r="2"/>
		<circle class="st0" fill="#FF00DB" cx="40.3" cy="49.6" r="2"/>
		<circle class="st0" fill="#FF00DB" cx="48.5" cy="47" r="1.5"/>
		<circle class="st0" fill="#FF00DB" cx="54.2" cy="42.4" r="1.6"/>
		<circle class="st0" fill="#FF00DB" cx="57.7" cy="36.9" r="1.9"/>
		<circle class="st0" fill="#FF00DB" cx="59.6" cy="29.6" r="1.9"/>
		<circle class="st0" fill="#FF00DB" cx="56.7" cy="22.7" r="1.9"/>
		<circle class="st0" fill="#FF00DB" cx="49.6" cy="14.9" r="2"/>
</g>
<g id="Layer_2">
		<circle class="st1" fill="#FF00DB" cx="48.7" cy="5.3" r="2.5"/>
		<circle class="st1" fill="#FF00DB" cx="55.4" cy="11.7" r="1.5"/>
		<circle class="st1" fill="#FF00DB" cx="59.2" cy="20.9" r="2.3"/>
		<circle class="st1" fill="#FF00DB" cx="59.2" cy="31.7" r="2.3"/>
		<circle class="st1" fill="#FF00DB" cx="54.3" cy="40.9" r="2"/>
		<circle class="st1" fill="#FF00DB" cx="46.5" cy="46.6" r="1.3"/>
		<circle class="st1" fill="#FF00DB" cx="37" cy="49.5" r="2"/>
		<circle class="st1" fill="#FF00DB" cx="25.2" cy="49.6" r="2"/>
		<circle class="st1" fill="#FF00DB" cx="17" cy="47" r="1.5"/>
		<circle class="st1" fill="#FF00DB" cx="11.3" cy="42.4" r="1.6"/>
		<circle class="st1" fill="#FF00DB" cx="7.8" cy="36.9" r="1.9"/>
		<circle class="st1" fill="#FF00DB" cx="5.9" cy="29.6" r="1.9"/>
		<circle class="st1" fill="#FF00DB" cx="8.8" cy="22.7" r="1.9"/>
		<circle class="st1" fill="#FF00DB" cx="15.9" cy="14.9" r="2"/>
</g>
</svg>
