<?xml version="1.0" encoding="utf-8"?>
<!-- Generator: Adobe Illustrator 18.1.1, SVG Export Plug-In . SVG Version: 6.00 Build 0)  -->
<svg version="1.1" id="Layer_1" xmlns="http://www.w3.org/2000/svg" xmlns:xlink="http://www.w3.org/1999/xlink" x="0px" y="0px"
	 viewBox="0 0 500 500" style="enable-background:new 0 0 500 500;" xml:space="preserve">
<style type="text/css">
	.st0{fill:#FF00DB;}
</style>
<g>
	<circle class="st0" cx="56.2" cy="9.2" r="2.4"/>
	<circle class="st0" cx="50.7" cy="18.7" r="3.1"/>
	<circle class="st0" cx="41.2" cy="24.1" r="2.4"/>
	<circle class="st0" cx="29.7" cy="20.4" r="1.7"/>
	<circle class="st0" cx="24.2" cy="13.6" r="2"/>
	<circle class="st0" cx="12.4" cy="2" r="2"/>
	<circle class="st0" cx="5" cy="14.5" r="3"/>
	<circle class="st0" cx="2.7" cy="29.2" r="2.7"/>
	<circle class="st0" cx="2.5" cy="44" r="2.5"/>
	<circle class="st0" cx="5.4" cy="56.3" r="2.6"/>
	<circle class="st0" cx="12.7" cy="65.6" r="2.4"/>
	<circle class="st0" cx="24.9" cy="70.7" r="2.7"/>
	<circle class="st0" cx="37.3" cy="68.1" r="2.5"/>
	<circle class="st0" cx="43.3" cy="61.1" r="2.1"/>
	<circle class="st0" cx="52.3" cy="57.9" r="1.5"/>
</g>
<g>
	<circle class="st0" cx="2.4" cy="9.2" r="2.4"/>
	<circle class="st0" cx="7.8" cy="18.7" r="3.1"/>
	<circle class="st0" cx="17.3" cy="24.1" r="2.4"/>
	<circle class="st0" cx="28.9" cy="20.4" r="1.7"/>
	<circle class="st0" cx="34.3" cy="13.6" r="2"/>
	<circle class="st0" cx="46.2" cy="2" r="2"/>
	<circle class="st0" cx="53.5" cy="14.5" r="3"/>
	<circle class="st0" cx="55.8" cy="29.2" r="2.7"/>
	<circle class="st0" cx="56" cy="44" r="2.5"/>
	<circle class="st0" cx="53.2" cy="56.3" r="2.6"/>
	<circle class="st0" cx="45.8" cy="65.6" r="2.4"/>
	<circle class="st0" cx="33.6" cy="70.7" r="2.7"/>
	<circle class="st0" cx="21.2" cy="68.1" r="2.5"/>
	<circle class="st0" cx="15.2" cy="61.1" r="2.1"/>
	<circle class="st0" cx="6.3" cy="57.9" r="1.5"/>
</g>
</svg>
