<?xml version="1.0" encoding="utf-8"?>
<!-- Generator: Adobe Illustrator 18.1.1, SVG Export Plug-In . SVG Version: 6.00 Build 0)  -->
<svg version="1.1" id="Layer_1" xmlns="http://www.w3.org/2000/svg" xmlns:xlink="http://www.w3.org/1999/xlink" x="0px" y="0px"
	 viewBox="0 0 400 200" style="enable-background:new 0 0 400 200;" xml:space="preserve">
<style type="text/css">
	.st0{fill:#1C75BC;stroke:#FFFFFF;stroke-width:0.75;stroke-miterlimit:10;}
	.st1{font-family:'TimesNewRomanPS-BoldMT';}
	.st2{font-size:24;}
	.st3{fill:none;stroke:#00FF73;stroke-miterlimit:10;}
</style>
<text transform="matrix(1.3216 0 0 1 6.7762 51.7467)" class="st0 st1 st2">Lemon</text>
<g>
	<path class="st0" d="M38.1,4.9v5.5h-0.6C37.1,9,36.2,7.9,35,7.1C33.8,6.4,32.4,6,30.8,6c-1.3,0-2.5,0.3-3.6,0.9
		c-1.1,0.6-1.9,1.3-2.4,2.2c-0.7,1.2-1,2.5-1,3.9c0,1.4,0.2,2.7,0.7,3.9c0.5,1.2,1.2,2.1,2.2,2.6c1,0.6,2.3,0.9,3.9,0.9
		c1.3,0,2.5-0.2,3.6-0.7s2.3-1.2,3.5-2.3v1.4c-1.2,0.9-2.4,1.6-3.7,2c-1.3,0.4-2.8,0.6-4.5,0.6c-2.2,0-4.2-0.3-6-1s-3.1-1.7-4-2.9
		c-0.9-1.3-1.4-2.6-1.4-4.1c0-1.5,0.5-3,1.6-4.3s2.5-2.4,4.2-3.2c1.8-0.8,3.7-1.1,5.7-1.1c1.5,0,3,0.2,4.7,0.7
		c1,0.3,1.6,0.4,1.8,0.4c0.3,0,0.6-0.1,0.9-0.3c0.2-0.2,0.4-0.5,0.5-0.9H38.1z"/>
	<path class="st0" d="M47,10.2v2.5c1-1.1,1.8-1.9,2.5-2.3s1.4-0.6,2.1-0.6c0.6,0,1,0.1,1.4,0.4c0.3,0.3,0.5,0.7,0.5,1.1
		c0,0.5-0.2,0.9-0.5,1.2s-0.7,0.4-1.2,0.4c-0.5,0-1-0.1-1.4-0.4c-0.4-0.3-0.6-0.4-0.7-0.4c-0.1,0-0.2-0.1-0.4-0.1
		c-0.3,0-0.6,0.1-0.9,0.3c-0.4,0.3-0.7,0.6-1,1.1c-0.3,0.8-0.5,1.6-0.5,2.5v2.5l0,0.7c0,0.4,0,0.7,0.1,0.9c0.1,0.2,0.3,0.4,0.5,0.5
		c0.2,0.1,0.7,0.2,1.2,0.2v0.4H41v-0.4c0.6,0,1.1-0.2,1.3-0.4c0.2-0.2,0.3-0.8,0.3-1.8v-6.1c0-0.6,0-1-0.1-1.2
		c-0.1-0.2-0.3-0.4-0.4-0.5c-0.2-0.1-0.5-0.2-1-0.2v-0.4H47z"/>
	<path class="st0" d="M63,19.6c-1.8,1.2-3.4,1.8-4.8,1.8c-0.8,0-1.5-0.2-2.1-0.6s-0.8-0.9-0.8-1.5c0-0.8,0.5-1.6,1.4-2.3
		c0.9-0.7,3-1.6,6.2-2.7v-1.1c0-0.8-0.1-1.3-0.2-1.6s-0.3-0.4-0.7-0.6s-0.7-0.2-1.1-0.2c-0.7,0-1.2,0.1-1.7,0.3
		c-0.3,0.1-0.4,0.3-0.4,0.5c0,0.2,0.1,0.4,0.4,0.6c0.4,0.3,0.6,0.7,0.6,1c0,0.4-0.2,0.7-0.6,1s-0.9,0.4-1.5,0.4
		c-0.7,0-1.2-0.1-1.6-0.4c-0.4-0.3-0.7-0.6-0.7-1c0-0.6,0.3-1.1,0.9-1.6c0.6-0.5,1.4-0.9,2.5-1.2c1.1-0.3,2.1-0.4,3.3-0.4
		c1.4,0,2.5,0.2,3.3,0.7s1.3,0.9,1.6,1.4c0.1,0.3,0.2,1.1,0.2,2.3v4.3c0,0.5,0,0.8,0.1,0.9c0.1,0.1,0.1,0.2,0.2,0.3
		c0.1,0.1,0.2,0.1,0.4,0.1c0.3,0,0.5-0.1,0.8-0.4l0.5,0.3c-0.5,0.6-1.1,1-1.6,1.3c-0.6,0.3-1.2,0.4-1.9,0.4c-0.8,0-1.5-0.1-1.9-0.4
		C63.4,20.6,63.1,20.2,63,19.6z M63,18.7v-3.7c-1.2,0.6-2.2,1.1-2.8,1.8c-0.4,0.4-0.6,0.8-0.6,1.3c0,0.4,0.2,0.7,0.5,0.9
		c0.3,0.2,0.6,0.3,1.1,0.3C61.7,19.4,62.3,19.2,63,18.7z"/>
	<path class="st0" d="M76.8,10.2v1.4c0.7-0.6,1.5-1.1,2.1-1.3c0.7-0.3,1.4-0.4,2.2-0.4c0.9,0,1.7,0.2,2.3,0.6s1,0.9,1.2,1.5
		c0.2,0.4,0.2,1.3,0.2,2.6v4.3c0,0.8,0.1,1.4,0.3,1.6c0.2,0.2,0.6,0.3,1.3,0.4v0.4h-7.3v-0.4c0.5-0.1,0.9-0.2,1.2-0.5
		c0.2-0.2,0.2-0.7,0.2-1.5v-4.9c0-0.9,0-1.5-0.1-1.7c-0.1-0.2-0.2-0.4-0.5-0.5s-0.5-0.2-0.7-0.2c-0.9,0-1.7,0.5-2.5,1.4v5.9
		c0,0.8,0.1,1.3,0.3,1.6s0.6,0.4,1.1,0.4v0.4h-7.3v-0.4c0.6,0,1-0.2,1.3-0.4c0.2-0.2,0.3-0.7,0.3-1.5v-6.2c0-0.8-0.1-1.3-0.3-1.5
		c-0.2-0.2-0.6-0.3-1.3-0.4v-0.4H76.8z"/>
	<path class="st0" d="M94.1,5.3v6c1.2-1,2.6-1.4,4-1.4c1,0,1.9,0.2,2.8,0.7s1.6,1.1,2.1,1.9s0.7,1.8,0.7,2.8c0,1.2-0.3,2.3-0.9,3.3
		c-0.6,1-1.5,1.7-2.5,2.2c-1.1,0.5-2.3,0.8-3.6,0.8c-0.8,0-1.5-0.1-2.1-0.3c-0.6-0.2-1.2-0.5-1.8-0.9l-2.4,1.2h-0.5V7.6
		c0-0.6,0-1-0.1-1.2c-0.1-0.2-0.3-0.4-0.5-0.5s-0.6-0.2-1.1-0.2V5.3H94.1z M94.1,12.4v4.9c0,1,0,1.6,0.1,1.9
		c0.1,0.5,0.4,0.8,0.7,1.1c0.4,0.3,0.9,0.4,1.5,0.4c0.5,0,1-0.1,1.4-0.3s0.7-0.7,0.9-1.3c0.3-0.7,0.4-1.9,0.4-3.6
		c0-1.7-0.3-2.8-0.8-3.5c-0.4-0.5-0.9-0.7-1.6-0.7C95.8,11.3,95,11.6,94.1,12.4z"/>
	<path class="st0" d="M118.4,15.3h-7.9c0.1,1.5,0.6,2.6,1.5,3.4c0.7,0.6,1.6,1,2.6,1c0.6,0,1.2-0.1,1.7-0.4s1-0.7,1.6-1.4l0.5,0.3
		c-0.8,1.2-1.7,2.1-2.6,2.6c-0.9,0.5-2,0.8-3.3,0.8c-2.1,0-3.8-0.6-4.9-1.9c-0.9-1-1.3-2.3-1.3-3.8c0-1.8,0.7-3.3,2-4.4
		s2.8-1.6,4.6-1.6c1.5,0,2.7,0.5,3.8,1.4C117.8,12.2,118.4,13.5,118.4,15.3z M114.6,14.5c0-1.3-0.1-2.1-0.3-2.6s-0.5-0.8-0.8-1.1
		c-0.2-0.1-0.5-0.2-0.9-0.2c-0.5,0-1,0.2-1.3,0.6c-0.6,0.7-0.9,1.6-0.9,2.9v0.4H114.6z"/>
	<path class="st0" d="M126.3,10.2v2.5c1-1.1,1.8-1.9,2.5-2.3s1.4-0.6,2.1-0.6c0.6,0,1,0.1,1.4,0.4c0.3,0.3,0.5,0.7,0.5,1.1
		c0,0.5-0.2,0.9-0.5,1.2s-0.7,0.4-1.2,0.4c-0.5,0-1-0.1-1.4-0.4c-0.4-0.3-0.6-0.4-0.7-0.4c-0.1,0-0.2-0.1-0.4-0.1
		c-0.3,0-0.6,0.1-0.9,0.3c-0.4,0.3-0.7,0.6-1,1.1c-0.3,0.8-0.5,1.6-0.5,2.5v2.5l0,0.7c0,0.4,0,0.7,0.1,0.9c0.1,0.2,0.3,0.4,0.5,0.5
		c0.2,0.1,0.7,0.2,1.2,0.2v0.4h-7.8v-0.4c0.6,0,1.1-0.2,1.3-0.4c0.2-0.2,0.3-0.8,0.3-1.8v-6.1c0-0.6,0-1-0.1-1.2
		c-0.1-0.2-0.3-0.4-0.4-0.5c-0.2-0.1-0.5-0.2-1-0.2v-0.4H126.3z"/>
	<path class="st0" d="M140.3,10.2v2.5c1-1.1,1.8-1.9,2.5-2.3s1.4-0.6,2.1-0.6c0.6,0,1,0.1,1.4,0.4c0.3,0.3,0.5,0.7,0.5,1.1
		c0,0.5-0.2,0.9-0.5,1.2s-0.7,0.4-1.2,0.4c-0.5,0-1-0.1-1.4-0.4c-0.4-0.3-0.6-0.4-0.7-0.4c-0.1,0-0.2-0.1-0.4-0.1
		c-0.3,0-0.6,0.1-0.9,0.3c-0.4,0.3-0.7,0.6-1,1.1c-0.3,0.8-0.5,1.6-0.5,2.5v2.5l0,0.7c0,0.4,0,0.7,0.1,0.9c0.1,0.2,0.3,0.4,0.5,0.5
		c0.2,0.1,0.7,0.2,1.2,0.2v0.4h-7.8v-0.4c0.6,0,1.1-0.2,1.3-0.4c0.2-0.2,0.3-0.8,0.3-1.8v-6.1c0-0.6,0-1-0.1-1.2
		c-0.1-0.2-0.3-0.4-0.4-0.5c-0.2-0.1-0.5-0.2-1-0.2v-0.4H140.3z"/>
	<path class="st0" d="M155,21.6l-4.7-8.1c-0.7-1.2-1.2-2-1.6-2.3s-0.7-0.5-1.2-0.6v-0.4h7.7v0.4c-0.5,0-0.9,0.1-1.1,0.2
		s-0.3,0.3-0.3,0.5c0,0.3,0.3,0.9,0.8,1.8l2.5,4.3l1.7-3.3c0.6-1.2,0.9-2,0.9-2.5c0-0.3-0.1-0.5-0.4-0.7s-0.7-0.3-1.3-0.3v-0.4h4.8
		v0.4c-0.5,0-0.9,0.2-1.2,0.4s-0.8,1-1.5,2.4l-4.1,8.1c-1,2-1.8,3.3-2.3,3.8c-0.7,0.7-1.6,1-2.7,1c-0.9,0-1.6-0.2-2.1-0.6
		s-0.8-0.8-0.8-1.3c0-0.5,0.2-0.8,0.5-1.1c0.4-0.3,0.8-0.4,1.4-0.4c0.5,0,0.9,0.1,1.2,0.4s0.5,0.6,0.5,1.2c0,0.3,0.1,0.5,0.1,0.6
		s0.2,0.1,0.4,0.1c0.2,0,0.5-0.1,0.8-0.3c0.4-0.3,0.9-1.1,1.5-2.2L155,21.6z"/>
</g>
<line class="st3" x1="19.3" y1="21.2" x2="159.5" y2="21.2"/>
<g>
	<path class="st0" d="M177.9,5.7V12c0.8-0.6,1.5-1.1,2.2-1.3c0.7-0.3,1.3-0.4,2.1-0.4c0.9,0,1.7,0.2,2.3,0.6
		c0.6,0.4,1.1,0.8,1.3,1.4c0.2,0.5,0.3,1.4,0.3,2.7v4.3c0,0.8,0.1,1.4,0.3,1.6s0.6,0.3,1.3,0.4v0.4h-7.3v-0.4
		c0.5-0.1,0.9-0.2,1.2-0.5c0.2-0.2,0.3-0.7,0.3-1.5v-4.9c0-0.9,0-1.5-0.1-1.7c-0.1-0.2-0.3-0.4-0.5-0.5c-0.2-0.1-0.5-0.2-0.8-0.2
		c-0.4,0-0.8,0.1-1.2,0.3c-0.4,0.2-0.8,0.6-1.3,1.1v5.9c0,0.8,0.1,1.3,0.2,1.5c0.2,0.3,0.6,0.4,1.2,0.5v0.4H172v-0.4
		c0.6,0,1-0.2,1.3-0.4c0.2-0.2,0.3-0.7,0.3-1.5V8.1c0-0.8-0.1-1.3-0.3-1.5c-0.2-0.2-0.6-0.3-1.3-0.4V5.7H177.9z"/>
	<path class="st0" d="M197.6,19.9c-1.8,1.2-3.4,1.8-4.8,1.8c-0.8,0-1.5-0.2-2.1-0.6s-0.8-0.9-0.8-1.5c0-0.8,0.5-1.6,1.4-2.3
		c0.9-0.7,3-1.6,6.2-2.7v-1.1c0-0.8-0.1-1.3-0.2-1.6s-0.3-0.4-0.7-0.6s-0.7-0.2-1.1-0.2c-0.7,0-1.2,0.1-1.7,0.3
		c-0.3,0.1-0.4,0.3-0.4,0.5c0,0.2,0.1,0.4,0.4,0.6c0.4,0.3,0.6,0.7,0.6,1c0,0.4-0.2,0.7-0.6,1s-0.9,0.4-1.5,0.4
		c-0.7,0-1.2-0.1-1.6-0.4c-0.4-0.3-0.7-0.6-0.7-1c0-0.6,0.3-1.1,0.9-1.6c0.6-0.5,1.4-0.9,2.5-1.2c1.1-0.3,2.1-0.4,3.3-0.4
		c1.4,0,2.5,0.2,3.3,0.7s1.3,0.9,1.6,1.4c0.1,0.3,0.2,1.1,0.2,2.3v4.3c0,0.5,0,0.8,0.1,0.9c0.1,0.1,0.1,0.2,0.2,0.3
		c0.1,0.1,0.2,0.1,0.4,0.1c0.3,0,0.5-0.1,0.8-0.4l0.5,0.3c-0.5,0.6-1.1,1-1.6,1.3c-0.6,0.3-1.2,0.4-1.9,0.4c-0.8,0-1.5-0.1-1.9-0.4
		C198,21,197.7,20.5,197.6,19.9z M197.6,19.1v-3.7c-1.2,0.6-2.2,1.1-2.8,1.8c-0.4,0.4-0.6,0.8-0.6,1.3c0,0.4,0.2,0.7,0.5,0.9
		c0.3,0.2,0.6,0.3,1.1,0.3C196.4,19.7,197,19.5,197.6,19.1z"/>
	<path class="st0" d="M214.7,10.3l0.2,3.7h-0.5c-0.6-1.1-1.3-1.9-2-2.3s-1.4-0.6-2-0.6c-0.4,0-0.8,0.1-1.1,0.3s-0.4,0.5-0.4,0.7
		c0,0.2,0.1,0.4,0.3,0.6c0.3,0.3,1.3,0.9,2.8,1.6c1.5,0.8,2.5,1.4,3,2c0.5,0.5,0.7,1.2,0.7,1.8c0,0.6-0.2,1.2-0.6,1.8
		c-0.4,0.6-1,1-1.7,1.3s-1.5,0.5-2.4,0.5c-0.7,0-1.6-0.2-2.8-0.5c-0.3-0.1-0.5-0.1-0.6-0.1c-0.3,0-0.6,0.2-0.9,0.6h-0.5l-0.2-3.9
		h0.5c0.5,1,1.1,1.8,1.9,2.3s1.6,0.8,2.3,0.8c0.5,0,0.9-0.1,1.2-0.3s0.5-0.5,0.5-0.8c0-0.4-0.2-0.7-0.5-1c-0.3-0.3-1-0.7-2.1-1.2
		c-1.6-0.8-2.6-1.5-3.1-1.9c-0.7-0.6-1-1.3-1-2.1c0-0.8,0.4-1.6,1.2-2.3s1.9-1,3.3-1c0.8,0,1.5,0.1,2.3,0.4c0.3,0.1,0.5,0.2,0.7,0.2
		c0.2,0,0.3,0,0.4-0.1c0.1-0.1,0.3-0.2,0.5-0.5H214.7z"/>
	<path class="st0" d="M231.4,5.7v6c1.2-1,2.5-1.4,4-1.4c1,0,1.9,0.2,2.8,0.7c0.9,0.4,1.6,1.1,2.1,1.9c0.5,0.8,0.7,1.8,0.7,2.8
		c0,1.2-0.3,2.3-0.9,3.3s-1.5,1.7-2.5,2.2s-2.3,0.8-3.6,0.8c-0.8,0-1.5-0.1-2.1-0.3s-1.2-0.5-1.8-0.9l-2.4,1.2h-0.5V7.9
		c0-0.6,0-1-0.1-1.2c-0.1-0.2-0.3-0.4-0.5-0.5c-0.2-0.1-0.6-0.2-1.1-0.2V5.7H231.4z M231.4,12.8v4.9c0,1,0,1.6,0.1,1.9
		c0.1,0.5,0.4,0.8,0.7,1.1s0.9,0.4,1.5,0.4c0.5,0,1-0.1,1.4-0.3s0.7-0.7,0.9-1.3c0.3-0.7,0.4-1.9,0.4-3.6c0-1.7-0.3-2.8-0.8-3.5
		c-0.4-0.5-0.9-0.7-1.6-0.7C233.1,11.6,232.2,12,231.4,12.8z"/>
	<path class="st0" d="M255.7,15.7h-7.9c0.1,1.5,0.6,2.6,1.5,3.4c0.7,0.6,1.6,1,2.6,1c0.6,0,1.2-0.1,1.7-0.4s1-0.7,1.6-1.4l0.5,0.3
		c-0.8,1.2-1.7,2.1-2.6,2.6s-2,0.8-3.3,0.8c-2.1,0-3.8-0.6-4.9-1.9c-0.9-1-1.3-2.3-1.3-3.8c0-1.8,0.7-3.3,2-4.4
		c1.3-1.1,2.8-1.6,4.6-1.6c1.5,0,2.7,0.5,3.8,1.4S255.6,13.9,255.7,15.7z M251.9,14.9c0-1.3-0.1-2.1-0.3-2.6s-0.5-0.8-0.8-1.1
		c-0.2-0.1-0.5-0.2-0.9-0.2c-0.5,0-1,0.2-1.3,0.6c-0.6,0.7-0.9,1.6-0.9,2.9v0.4H251.9z"/>
	<path class="st0" d="M269.8,15.7h-7.9c0.1,1.5,0.6,2.6,1.5,3.4c0.7,0.6,1.6,1,2.6,1c0.6,0,1.2-0.1,1.7-0.4s1-0.7,1.6-1.4l0.5,0.3
		c-0.8,1.2-1.7,2.1-2.6,2.6s-2,0.8-3.3,0.8c-2.1,0-3.8-0.6-4.9-1.9c-0.9-1-1.3-2.3-1.3-3.8c0-1.8,0.7-3.3,2-4.4
		c1.3-1.1,2.8-1.6,4.6-1.6c1.5,0,2.7,0.5,3.8,1.4S269.7,13.9,269.8,15.7z M266,14.9c0-1.3-0.1-2.1-0.3-2.6s-0.5-0.8-0.8-1.1
		c-0.2-0.1-0.5-0.2-0.9-0.2c-0.5,0-1,0.2-1.3,0.6c-0.6,0.7-0.9,1.6-0.9,2.9v0.4H266z"/>
	<path class="st0" d="M277.5,10.6V12c0.7-0.6,1.5-1.1,2.1-1.3s1.4-0.4,2.2-0.4c0.9,0,1.7,0.2,2.3,0.6c0.6,0.4,1,0.9,1.2,1.5
		c0.2,0.4,0.2,1.3,0.2,2.6v4.3c0,0.8,0.1,1.4,0.3,1.6c0.2,0.2,0.6,0.3,1.3,0.4v0.4h-7.3v-0.4c0.5-0.1,0.9-0.2,1.2-0.5
		c0.2-0.2,0.2-0.7,0.2-1.5v-4.9c0-0.9,0-1.5-0.1-1.7s-0.2-0.4-0.5-0.5c-0.2-0.1-0.5-0.2-0.7-0.2c-0.9,0-1.7,0.5-2.5,1.4v5.9
		c0,0.8,0.1,1.3,0.3,1.6s0.6,0.4,1.1,0.4v0.4h-7.3v-0.4c0.6,0,1-0.2,1.3-0.4c0.2-0.2,0.3-0.7,0.3-1.5V13c0-0.8-0.1-1.3-0.3-1.5
		s-0.6-0.3-1.3-0.4v-0.4H277.5z"/>
</g>
<g>
	<path class="st0" d="M302.6,20.5v4.1c0,0.6,0.1,0.9,0.2,1.1c0.1,0.2,0.3,0.4,0.5,0.4c0.2,0.1,0.7,0.1,1.5,0.1v0.4h-8.3v-0.4
		c0.6,0,1.1-0.2,1.4-0.4c0.2-0.2,0.3-0.6,0.3-1.4V12.9c0-0.8-0.1-1.3-0.4-1.5c-0.2-0.2-0.7-0.3-1.4-0.4v-0.4h6.1V12
		c0.5-0.6,1-1,1.5-1.2c0.8-0.4,1.6-0.6,2.5-0.6c1.1,0,2,0.3,2.9,0.8c0.9,0.5,1.5,1.2,2,2.1c0.5,0.9,0.7,1.9,0.7,2.9
		c0,1.1-0.2,2.1-0.7,3s-1.2,1.6-2,2.1c-0.9,0.5-1.9,0.7-3,0.7c-0.8,0-1.5-0.1-2.2-0.4C303.7,21.3,303.2,20.9,302.6,20.5z
		 M302.6,19.3c0.9,1,1.8,1.4,2.8,1.4c0.6,0,1-0.2,1.4-0.7c0.5-0.7,0.8-1.9,0.8-3.8c0-1.9-0.3-3.2-0.9-3.9c-0.4-0.5-0.9-0.7-1.6-0.7
		c-1,0-1.9,0.6-2.6,1.7V19.3z"/>
	<path class="st0" d="M326.9,15.7H319c0.1,1.5,0.6,2.6,1.5,3.4c0.7,0.6,1.6,1,2.6,1c0.6,0,1.2-0.1,1.7-0.4s1-0.7,1.6-1.4l0.5,0.3
		c-0.8,1.2-1.7,2.1-2.6,2.6s-2,0.8-3.3,0.8c-2.1,0-3.8-0.6-4.9-1.9c-0.9-1-1.3-2.3-1.3-3.8c0-1.8,0.7-3.3,2-4.4
		c1.3-1.1,2.8-1.6,4.6-1.6c1.5,0,2.7,0.5,3.8,1.4S326.8,13.9,326.9,15.7z M323.1,14.9c0-1.3-0.1-2.1-0.3-2.6s-0.5-0.8-0.8-1.1
		c-0.2-0.1-0.5-0.2-0.9-0.2c-0.5,0-1,0.2-1.3,0.6c-0.6,0.7-0.9,1.6-0.9,2.9v0.4H323.1z"/>
	<path class="st0" d="M336.7,19.9c-1.8,1.2-3.4,1.8-4.8,1.8c-0.8,0-1.5-0.2-2.1-0.6c-0.5-0.4-0.8-0.9-0.8-1.5c0-0.8,0.5-1.6,1.4-2.3
		c0.9-0.7,3-1.6,6.2-2.7v-1.1c0-0.8-0.1-1.3-0.2-1.6c-0.1-0.2-0.3-0.4-0.7-0.6c-0.3-0.2-0.7-0.2-1.1-0.2c-0.7,0-1.2,0.1-1.7,0.3
		c-0.3,0.1-0.4,0.3-0.4,0.5c0,0.2,0.1,0.4,0.4,0.6c0.4,0.3,0.6,0.7,0.6,1c0,0.4-0.2,0.7-0.6,1s-0.9,0.4-1.5,0.4
		c-0.7,0-1.2-0.1-1.6-0.4s-0.7-0.6-0.7-1c0-0.6,0.3-1.1,0.9-1.6s1.4-0.9,2.5-1.2c1.1-0.3,2.1-0.4,3.3-0.4c1.4,0,2.5,0.2,3.3,0.7
		c0.8,0.4,1.3,0.9,1.6,1.4c0.1,0.3,0.2,1.1,0.2,2.3v4.3c0,0.5,0,0.8,0.1,0.9s0.1,0.2,0.2,0.3s0.2,0.1,0.4,0.1c0.3,0,0.5-0.1,0.8-0.4
		l0.5,0.3c-0.5,0.6-1.1,1-1.6,1.3c-0.6,0.3-1.2,0.4-1.9,0.4c-0.8,0-1.5-0.1-1.9-0.4C337.1,21,336.8,20.5,336.7,19.9z M336.7,19.1
		v-3.7c-1.2,0.6-2.2,1.1-2.8,1.8c-0.4,0.4-0.6,0.8-0.6,1.3c0,0.4,0.2,0.7,0.5,0.9c0.3,0.2,0.6,0.3,1.1,0.3
		C335.4,19.7,336,19.5,336.7,19.1z"/>
	<path class="st0" d="M356.4,18.7l0.5,0.3c-0.7,1-1.5,1.7-2.5,2.2c-1,0.5-2.1,0.7-3.2,0.7c-1.9,0-3.5-0.6-4.6-1.7s-1.7-2.4-1.7-4
		c0-1.5,0.5-2.8,1.6-3.9c1.3-1.4,3-2.1,5.2-2.1c1.5,0,2.7,0.3,3.6,0.9s1.3,1.2,1.3,1.9c0,0.4-0.2,0.8-0.5,1.1s-0.8,0.4-1.4,0.4
		c-0.6,0-1.1-0.2-1.5-0.5s-0.6-0.8-0.7-1.6c-0.1-0.5-0.2-0.8-0.4-1c-0.2-0.2-0.5-0.3-0.8-0.3c-0.5,0-0.9,0.2-1.3,0.6
		c-0.5,0.6-0.8,1.5-0.8,2.8c0,1,0.2,2,0.7,3s1,1.6,1.8,2.1c0.6,0.3,1.2,0.5,2,0.5c0.5,0,1-0.1,1.4-0.3
		C355.2,19.6,355.8,19.2,356.4,18.7z"/>
	<path class="st0" d="M364.6,5.7V12c0.8-0.6,1.5-1.1,2.2-1.3s1.3-0.4,2.1-0.4c0.9,0,1.7,0.2,2.3,0.6s1.1,0.8,1.3,1.4
		c0.2,0.5,0.3,1.4,0.3,2.7v4.3c0,0.8,0.1,1.4,0.3,1.6c0.2,0.2,0.6,0.3,1.3,0.4v0.4H367v-0.4c0.5-0.1,0.9-0.2,1.2-0.5
		c0.2-0.2,0.3-0.7,0.3-1.5v-4.9c0-0.9,0-1.5-0.1-1.7c-0.1-0.2-0.2-0.4-0.5-0.5c-0.2-0.1-0.5-0.2-0.8-0.2c-0.4,0-0.8,0.1-1.2,0.3
		c-0.4,0.2-0.8,0.6-1.3,1.1v5.9c0,0.8,0.1,1.3,0.2,1.5c0.2,0.3,0.6,0.4,1.2,0.5v0.4h-7.3v-0.4c0.6,0,1-0.2,1.3-0.4
		c0.2-0.2,0.3-0.7,0.3-1.5V8.1c0-0.8-0.1-1.3-0.3-1.5c-0.2-0.2-0.6-0.3-1.3-0.4V5.7H364.6z"/>
	<path class="st0" d="M379.2,18c0.7,0,1.3,0.2,1.8,0.6s0.8,0.8,0.8,1.4s-0.3,1-0.8,1.4s-1.1,0.6-1.8,0.6c-0.7,0-1.3-0.2-1.8-0.6
		s-0.8-0.8-0.8-1.4s0.2-1,0.8-1.4S378.5,18,379.2,18z"/>
</g>
</svg>
