<?xml version="1.0" encoding="utf-8"?>
<!-- Generator: Adobe Illustrator 18.1.1, SVG Export Plug-In . SVG Version: 6.00 Build 0)  -->
<svg version="1.1" xmlns="http://www.w3.org/2000/svg" xmlns:xlink="http://www.w3.org/1999/xlink" x="0px" y="0px"
	 viewBox="0 0 500 500" style="enable-background:new 0 0 500 500;" xml:space="preserve">
<style type="text/css">
	.st0{fill:#FF00CF;}
	.st1{display:none;}
	.st2{display:inline;fill:#FF00CF;}
</style>
<g id="Layer_1">
	<g>
		<circle class="st0" cx="3.8" cy="4.1" r="3.1"/>
		<circle class="st0" cx="7.2" cy="24.6" r="3.4"/>
		<circle class="st0" cx="3.9" cy="44.6" r="3.2"/>
		<circle class="st0" cx="10.4" cy="59.1" r="3.2"/>
		<circle class="st0" cx="26.1" cy="65.4" r="3.1"/>
		<circle class="st0" cx="66.1" cy="4.1" r="3.1"/>
		<circle class="st0" cx="62.7" cy="24.6" r="3.4"/>
		<circle class="st0" cx="65.9" cy="44.6" r="3.2"/>
		<circle class="st0" cx="59.5" cy="59.1" r="3.2"/>
		<circle class="st0" cx="43.8" cy="65.4" r="3.1"/>
	</g>
</g>
<g id="Layer_2" class="st1">
	<circle class="st2" cx="3.1" cy="3.1" r="3.1"/>
	<circle class="st2" cx="6.5" cy="23.6" r="3.4"/>
	<circle class="st2" cx="3.2" cy="43.6" r="3.2"/>
	<circle class="st2" cx="9.7" cy="58.1" r="3.2"/>
	<circle class="st2" cx="25.4" cy="64.4" r="3.1"/>
	<circle class="st2" cx="44.5" cy="64.4" r="3.1"/>
	<circle class="st2" cx="59.5" cy="61.2" r="3.1"/>
	<circle class="st2" cx="68.3" cy="54.9" r="2.6"/>
	<circle class="st2" cx="73.5" cy="43" r="2.6"/>
	<circle class="st2" cx="70.9" cy="29.5" r="2.6"/>
	<circle class="st2" cx="69" cy="18.1" r="2.6"/>
	<circle class="st2" cx="73.5" cy="5.7" r="2.6"/>
</g>
</svg>
