<?xml version="1.0" encoding="utf-8"?>
<!-- Generator: Adobe Illustrator 18.1.1, SVG Export Plug-In . SVG Version: 6.00 Build 0)  -->
<svg version="1.1" xmlns="http://www.w3.org/2000/svg" xmlns:xlink="http://www.w3.org/1999/xlink" x="0px" y="0px"
	 viewBox="0 0 500 500" style="enable-background:new 0 0 500 500;" xml:space="preserve">
<style type="text/css">
	.st0{fill:#FF00DB;}
</style>
<g id="Layer_1">
	<g>
		<circle class="st0" cx="4.6" cy="27.5" r="1.9"/>
		<circle class="st0" cx="7" cy="33.6" r="1.6"/>
		<circle class="st0" cx="11.7" cy="39.2" r="1.5"/>
		<circle class="st0" cx="19.3" cy="43.3" r="2"/>
		<circle class="st0" cx="29.9" cy="45.4" r="2"/>
		<circle class="st0" cx="38.4" cy="44.4" r="1.5"/>
		<circle class="st0" cx="44.9" cy="41" r="1.6"/>
		<circle class="st0" cx="49.4" cy="36.3" r="1.9"/>
		<circle class="st0" cx="52.6" cy="29.4" r="1.9"/>
		<circle class="st0" cx="52.3" cy="21.3" r="1.9"/>
		<circle class="st0" cx="49.9" cy="15.3" r="1.6"/>
		<circle class="st0" cx="45.2" cy="9.7" r="1.5"/>
		<circle class="st0" cx="37.6" cy="5.5" r="2"/>
		<circle class="st0" cx="27" cy="3.5" r="2"/>
		<circle class="st0" cx="18.5" cy="4.5" r="1.5"/>
		<circle class="st0" cx="12" cy="7.9" r="1.6"/>
		<circle class="st0" cx="7.5" cy="12.6" r="1.9"/>
		<circle class="st0" cx="4.1" cy="20" r="1.9"/>
	</g>
</g>
<g id="Layer_2">
	<g>
		<circle class="st1" cx="52.1" cy="27.5" r="1.9"/>
		<circle class="st1" cx="49.8" cy="33.6" r="1.6"/>
		<circle class="st1" cx="45" cy="39.2" r="1.5"/>
		<circle class="st1" cx="37.5" cy="43.3" r="2"/>
		<circle class="st1" cx="26.9" cy="45.4" r="2"/>
		<circle class="st1" cx="18.3" cy="44.4" r="1.5"/>
		<circle class="st1" cx="11.9" cy="41" r="1.6"/>
		<circle class="st1" cx="7.4" cy="36.3" r="1.9"/>
		<circle class="st1" cx="4.1" cy="29.4" r="1.9"/>
		<circle class="st1" cx="4.5" cy="21.3" r="1.9"/>
		<circle class="st1" cx="6.9" cy="15.3" r="1.6"/>
		<circle class="st1" cx="11.6" cy="9.7" r="1.5"/>
		<circle class="st1" cx="19.1" cy="5.5" r="2"/>
		<circle class="st1" cx="29.7" cy="3.5" r="2"/>
		<circle class="st1" cx="38.3" cy="4.5" r="1.5"/>
		<circle class="st1" cx="44.8" cy="7.9" r="1.6"/>
		<circle class="st1" cx="49.2" cy="12.6" r="1.9"/>
		<circle class="st1" cx="52.6" cy="20" r="1.9"/>
	</g>
</g>
</svg>
