<?xml version="1.0" encoding="utf-8"?>
<!-- Generator: Adobe Illustrator 18.1.1, SVG Export Plug-In . SVG Version: 6.00 Build 0)  -->
<svg version="1.1" id="Layer_1" xmlns="http://www.w3.org/2000/svg" xmlns:xlink="http://www.w3.org/1999/xlink" x="0px" y="0px"
	 viewBox="0 0 500 500" style="enable-background:new 0 0 500 500;" xml:space="preserve">
<style type="text/css">
	.st0{fill:#FF00DB;}
</style>
<g>
	<circle class="st0" cx="8.4" cy="9.5" r="2.4"/>
	<circle class="st0" cx="10.3" cy="20.9" r="1.9"/>
	<circle class="st0" cx="10" cy="33.6" r="1.6"/>
	<circle class="st0" cx="10" cy="46.1" r="1.6"/>
	<circle class="st0" cx="8.1" cy="57.5" r="2.2"/>
	<circle class="st0" cx="8" cy="68.7" r="2"/>
	<circle class="st0" cx="14.1" cy="79.5" r="1.9"/>
	<circle class="st0" cx="22.5" cy="86" r="1.9"/>
	<circle class="st0" cx="33.9" cy="86" r="1.9"/>
	<circle class="st0" cx="43.4" cy="83.5" r="2.2"/>
	<circle class="st0" cx="47.7" cy="77.6" r="2.2"/>
	<circle class="st0" cx="52" cy="68.9" r="2.2"/>
	<circle class="st0" cx="52" cy="59.7" r="2.2"/>
	<circle class="st0" cx="52" cy="48.3" r="2.2"/>
	<circle class="st0" cx="49.9" cy="37.4" r="2.2"/>
	<circle class="st0" cx="49.9" cy="28.2" r="2.2"/>
	<circle class="st0" cx="50.3" cy="18.3" r="2.6"/>
	<circle class="st0" cx="52.4" cy="7.4" r="2.4"/>
</g>
<g>
	<circle class="st0" cx="52.4" cy="9.5" r="2.4"/>
	<circle class="st0" cx="50.5" cy="20.9" r="1.9"/>
	<circle class="st0" cx="50.8" cy="33.6" r="1.6"/>
	<circle class="st0" cx="50.8" cy="46.1" r="1.6"/>
	<circle class="st0" cx="52.7" cy="57.5" r="2.2"/>
	<circle class="st0" cx="52.9" cy="68.7" r="2"/>
	<circle class="st0" cx="46.8" cy="79.5" r="1.9"/>
	<circle class="st0" cx="38.3" cy="86" r="1.9"/>
	<circle class="st0" cx="27" cy="86" r="1.9"/>
	<circle class="st0" cx="17.5" cy="83.5" r="2.2"/>
	<circle class="st0" cx="13.1" cy="77.6" r="2.2"/>
	<circle class="st0" cx="8.8" cy="68.9" r="2.2"/>
	<circle class="st0" cx="8.8" cy="59.7" r="2.2"/>
	<circle class="st0" cx="8.8" cy="48.3" r="2.2"/>
	<circle class="st0" cx="10.9" cy="37.4" r="2.2"/>
	<circle class="st0" cx="10.9" cy="28.2" r="2.2"/>
	<circle class="st0" cx="10.5" cy="18.3" r="2.6"/>
	<circle class="st0" cx="8.4" cy="7.4" r="2.4"/>
</g>
</svg>
