<?xml version="1.0" encoding="utf-8"?>
<!-- Generator: Adobe Illustrator 18.1.1, SVG Export Plug-In . SVG Version: 6.00 Build 0)  -->
<svg version="1.1" id="Layer_1" xmlns="http://www.w3.org/2000/svg" xmlns:xlink="http://www.w3.org/1999/xlink" x="0px" y="0px"
	 viewBox="0 0 500 500" style="enable-background:new 0 0 500 500;" xml:space="preserve">
<style type="text/css">
	.st0{fill:#FF00DB;}
</style>
<g>
	<circle class="st0" cx="14.6" cy="5.4" r="3.4"/>
	<circle class="st0" cx="23.5" cy="15.6" r="2.5"/>
	<circle class="st0" cx="36.8" cy="20.9" r="2.8"/>
	<circle class="st0" cx="47.3" cy="27" r="3.4"/>
	<circle class="st0" cx="59.3" cy="33.5" r="3.1"/>
	<circle class="st0" cx="53.5" cy="45.6" r="2.8"/>
	<circle class="st0" cx="47.3" cy="55.5" r="3.4"/>
	<circle class="st0" cx="37.4" cy="62.2" r="3.4"/>
	<circle class="st0" cx="29.4" cy="69" r="3.4"/>
	<circle class="st0" cx="17.8" cy="72.3" r="3.2"/>
	<circle class="st0" cx="8.4" cy="67.5" r="2.8"/>
</g>
<g>
	<circle class="st0" cx="53.5" cy="5.4" r="3.4"/>
	<circle class="st0" cx="44.5" cy="15.6" r="2.5"/>
	<circle class="st0" cx="31.2" cy="20.9" r="2.8"/>
	<circle class="st0" cx="20.8" cy="27" r="3.4"/>
	<circle class="st0" cx="8.7" cy="33.5" r="3.1"/>
	<circle class="st0" cx="14.6" cy="45.6" r="2.8"/>
	<circle class="st0" cx="20.8" cy="55.5" r="3.4"/>
	<circle class="st0" cx="30.6" cy="62.2" r="3.4"/>
	<circle class="st0" cx="38.7" cy="69" r="3.4"/>
	<circle class="st0" cx="50.2" cy="72.3" r="3.2"/>
	<circle class="st0" cx="59.7" cy="67.5" r="2.8"/>
</g>
</svg>
